<svg width="519" height="284" viewBox="0 0 519 284" fill="none" xmlns="http://www.w3.org/2000/svg">
<g clip-path="url(#clip0_1_4)">
<rect width="519" height="284" fill="white"/>
<path d="M42.496 109.792C31.4027 109.792 22.6133 106.72 16.128 100.576C9.64267 94.3467 6.4 85.472 6.4 73.952V52.448C6.4 40.928 9.64267 32.096 16.128 25.952C22.6133 19.7227 31.4027 16.608 42.496 16.608C53.504 16.608 61.9947 19.6373 67.968 25.696C74.0267 31.6693 77.056 39.904 77.056 50.4V51.168H60.416V49.888C60.416 44.5973 58.9227 40.2453 55.936 36.832C53.0347 33.4187 48.5547 31.712 42.496 31.712C36.5227 31.712 31.8293 33.5467 28.416 37.216C25.0027 40.8853 23.296 45.8773 23.296 52.192V74.208C23.296 80.4373 25.0027 85.4293 28.416 89.184C31.8293 92.8533 36.5227 94.688 42.496 94.688C48.5547 94.688 53.0347 92.9813 55.936 89.568C58.9227 86.0693 60.416 81.7173 60.416 76.512V74.208H77.056V76C77.056 86.496 74.0267 94.7733 67.968 100.832C61.9947 106.805 53.504 109.792 42.496 109.792ZM83.679 108L107.231 18.4H136.671L160.223 108H142.815L137.951 88.288H105.951L101.087 108H83.679ZM109.919 72.672H133.983L123.103 29.024H120.799L109.919 72.672ZM170.948 108V18.4H209.86C215.492 18.4 220.399 19.3813 224.58 21.344C228.761 23.3067 232.004 26.08 234.308 29.664C236.612 33.248 237.764 37.472 237.764 42.336V43.872C237.764 49.248 236.484 53.6 233.924 56.928C231.364 60.256 228.207 62.688 224.452 64.224V66.528C227.865 66.6987 230.511 67.8933 232.388 70.112C234.265 72.2453 235.204 75.104 235.204 78.688V108H218.308V81.12C218.308 79.072 217.753 77.408 216.644 76.128C215.62 74.848 213.871 74.208 211.396 74.208H187.844V108H170.948ZM187.844 58.848H208.068C212.079 58.848 215.193 57.7813 217.412 55.648C219.716 53.4293 220.868 50.528 220.868 46.944V45.664C220.868 42.08 219.759 39.2213 217.54 37.088C215.321 34.8693 212.164 33.76 208.068 33.76H187.844V58.848ZM251.823 108V18.4H283.183L298.671 96.48H300.975L316.463 18.4H347.823V108H331.439V30.816H329.135L313.775 108H285.871L270.511 30.816H268.207V108H251.823ZM364.698 108V18.4H422.298V33.76H381.594V55.136H418.714V70.496H381.594V92.64H423.066V108H364.698ZM435.573 108V18.4H467.701L485.493 96.48H487.797V18.4H504.437V108H472.309L454.517 29.92H452.213V108H435.573ZM8.448 271V181.4H25.344V255.64H66.304V271H8.448ZM108.543 272.792C102.228 272.792 96.5537 271.512 91.519 268.952C86.4843 266.392 82.5163 262.68 79.615 257.816C76.7137 252.952 75.263 247.107 75.263 240.28V238.232C75.263 231.405 76.7137 225.56 79.615 220.696C82.5163 215.832 86.4843 212.12 91.519 209.56C96.5537 207 102.228 205.72 108.543 205.72C114.858 205.72 120.532 207 125.567 209.56C130.602 212.12 134.57 215.832 137.471 220.696C140.372 225.56 141.823 231.405 141.823 238.232V240.28C141.823 247.107 140.372 252.952 137.471 257.816C134.57 262.68 130.602 266.392 125.567 268.952C120.532 271.512 114.858 272.792 108.543 272.792ZM108.543 258.456C113.492 258.456 117.588 256.877 120.831 253.72C124.074 250.477 125.695 245.869 125.695 239.896V238.616C125.695 232.643 124.074 228.077 120.831 224.92C117.674 221.677 113.578 220.056 108.543 220.056C103.594 220.056 99.4977 221.677 96.255 224.92C93.0123 228.077 91.391 232.643 91.391 238.616V239.896C91.391 245.869 93.0123 250.477 96.255 253.72C99.4977 256.877 103.594 258.456 108.543 258.456ZM98.815 200.344L108.287 181.4H126.463L112.895 200.344H98.815ZM156.198 271V181.4H193.062C198.694 181.4 203.643 182.552 207.91 184.856C212.262 187.075 215.633 190.232 218.022 194.328C220.497 198.424 221.734 203.288 221.734 208.92V210.712C221.734 216.259 220.454 221.123 217.894 225.304C215.419 229.4 212.006 232.6 207.654 234.904C203.387 237.123 198.523 238.232 193.062 238.232H173.094V271H156.198ZM173.094 222.872H191.398C195.409 222.872 198.651 221.763 201.126 219.544C203.601 217.325 204.838 214.296 204.838 210.456V209.176C204.838 205.336 203.601 202.307 201.126 200.088C198.651 197.869 195.409 196.76 191.398 196.76H173.094V222.872ZM233.448 271V181.4H291.048V196.76H250.344V218.136H287.464V233.496H250.344V255.64H291.816V271H233.448ZM301.763 271V249.496L346.051 198.552V196.504H303.043V181.4H363.715V202.904L319.427 253.848V255.896H363.971V271H301.763Z" fill="black"/>
</g>
<defs>
<clipPath id="clip0_1_4">
<rect width="519" height="284" fill="white"/>
</clipPath>
</defs>
</svg>
